<svg width="64" height="64" viewBox="0 0 64 64" fill="none" xmlns="http://www.w3.org/2000/svg">
<path fill-rule="evenodd" clip-rule="evenodd" d="M31.4609 18.8493C30.9932 18.3016 30.2915 18.011 29.5735 18.0675C28.9305 18.1181 28.4664 18.4882 28.2459 18.6727C27.9989 18.8795 27.7171 19.1614 27.4303 19.4483L22.6423 24.2363C22.5033 24.3752 22.4337 24.4443 22.3811 24.4924L22.3771 24.496L22.3717 24.4963C22.3005 24.4995 22.2024 24.4999 22.0059 24.4999L19.3522 24.4999C18.9736 24.4998 18.6049 24.4998 18.2927 24.5253C17.9498 24.5533 17.5452 24.6194 17.138 24.8269C16.5735 25.1145 16.1146 25.5734 15.827 26.1379C15.6195 26.5451 15.5534 26.9497 15.5254 27.2926C15.4999 27.6048 15.5 27.9735 15.5 28.352L15.5 35.6477C15.5 36.0263 15.4999 36.395 15.5254 36.7072C15.5534 37.0501 15.6195 37.4547 15.827 37.8619C16.1146 38.4264 16.5735 38.8853 17.138 39.1729C17.5452 39.3804 17.9498 39.4465 18.2927 39.4745C18.6049 39.5 18.9736 39.4999 19.3522 39.4999L22.0059 39.4999C22.2024 39.4999 22.3005 39.5003 22.3717 39.5035L22.3771 39.5038L22.3811 39.5074C22.4337 39.5555 22.5033 39.6246 22.6423 39.7635L27.4303 44.5515C27.717 44.8383 27.9989 45.1203 28.2459 45.3271C28.4664 45.5116 28.9305 45.8817 29.5735 45.9323C30.2915 45.9888 30.9932 45.6982 31.4609 45.1505C31.8798 44.6601 31.9463 44.0702 31.9717 43.7839C32.0001 43.4629 32.0001 43.0643 32 42.6587V21.3411C32.0001 20.9355 32.0001 20.5369 31.9717 20.2159C31.9463 19.9296 31.8798 19.3397 31.4609 18.8493Z" fill="white"/>
<path d="M48.0607 26.4393C48.6464 27.0251 48.6464 27.9749 48.0607 28.5607L44.6213 32L48.0607 35.4393C48.6464 36.0251 48.6464 36.9749 48.0607 37.5607C47.4749 38.1464 46.5251 38.1464 45.9393 37.5607L42.5 34.1213L39.0607 37.5607C38.4749 38.1464 37.5251 38.1464 36.9393 37.5607C36.3536 36.9749 36.3536 36.0251 36.9393 35.4393L40.3787 32L36.9393 28.5607C36.3536 27.9749 36.3536 27.0251 36.9393 26.4393C37.5251 25.8536 38.4749 25.8536 39.0607 26.4393L42.5 29.8787L45.9393 26.4393C46.5251 25.8536 47.4749 25.8536 48.0607 26.4393Z" fill="white"/>
</svg>
