<?xml version="1.0" encoding="utf-8"?>
<!-- Generator: Adobe Illustrator 26.0.2, SVG Export Plug-In . SVG Version: 6.00 Build 0)  -->
<svg version="1.1" id="Layer_1" xmlns="http://www.w3.org/2000/svg" xmlns:xlink="http://www.w3.org/1999/xlink" x="0px" y="0px"
	 viewBox="0 0 957 163" style="enable-background:new 0 0 957 163;" xml:space="preserve">
<g>
	<path d="M89,7c21.6,2.5,40.4,14.3,52.2,31.3l-50.2,9.3L89,7z M93.2,88.1l3.3,64.4c33.1-7.3,57.8-36.7,57.9-71.9L93.2,88.1z
		 M69.2,7.3c-35.5,5.4-62.6,36.1-62.6,73c0,32.9,21.6,60.8,51.3,70.4L69.2,7.3z"/>
	<g>
		<path d="M212.4,79.5c0-25.9,17.8-44.1,43.1-44.1c16.9,0,30.9,8.4,36.9,22.4l-15,8.6c-2.7-10.1-10.9-16.1-22.2-16.1
			c-15.4,0-26,11.5-26,28.6c0,17.8,10.3,29.8,25.7,29.8c12.5,0,21.9-8.1,23.9-20.3h-25.4V74.2h39.7v47.4h-14.2v-9.8
			c-6.4,7.1-15.7,11.1-26.7,11.1C229,122.9,212.4,104.8,212.4,79.5z"/>
		<path d="M316.3,121.6h-15.1V55h15.1v10.2c4.4-7.2,11-11.6,18.6-11.6c6,0,11.4,2.8,13.7,6.3l-6.7,12.8c-1.7-2.7-5.2-4.6-9.5-4.6
			c-8.5,0-16,7.4-16,26.9V121.6z"/>
		<path d="M345.7,88.4c0-20.8,13.4-34.7,33.2-34.7c19.9,0,33.2,13.9,33.2,34.7c0,20.7-13.4,34.6-33.2,34.6
			C359.1,122.9,345.7,109,345.7,88.4z M396.7,88.4c0-12.8-7.3-21.4-17.8-21.4s-17.8,8.6-17.8,21.4c0,12.7,7.3,21.2,17.8,21.2
			S396.7,101,396.7,88.4z"/>
		<path d="M417.3,99V55h15.1v39.4c0,9.8,4.8,15.1,13.5,15.1c12.1,0,18.8-10.4,18.8-25.3V55h15.1v66.5h-15.1v-10.2
			c-5.6,7.3-13.7,11.6-23.2,11.6C426.7,122.9,417.3,112.6,417.3,99z"/>
		<path d="M536.5,121.6v-39c0-9.8-5-15.4-13.6-15.4c-11.3,0-18.7,10.1-18.7,25.3v29.1h-15.1V55h15.1v9.8
			c5.5-7.2,13.7-11.1,23.2-11.1c15.2,0,24.1,10.2,24.1,26v41.9H536.5z"/>
		<path d="M556.8,88.4c0-22.6,14-34.7,28.9-34.7c9.1,0,16.8,4.2,22.1,11.8V35.4h15.1v86.1h-15.1v-8.9c-4.9,6.7-12.2,10.3-21.1,10.3
			C569.1,122.9,556.8,108.8,556.8,88.4z M607.7,88.4c0-12.8-7.3-21.4-17.9-21.4s-17.6,8.7-17.6,21.2c0,12.8,7.3,21.4,17.8,21.4
			C600.4,109.6,607.7,101,607.7,88.4z"/>
		<path d="M647.2,112.4v9.2h-15.1V35.4h15.1v30.8c5.2-7.9,13.8-12.5,22.9-12.5c14.7,0,28.1,12.1,28.1,34.5
			c0,20.7-12.3,34.8-29.8,34.8C659.8,122.9,651.7,119.2,647.2,112.4z M682.7,88.2c0-12.5-7.1-21.2-17.6-21.2s-17.9,8.6-17.9,21.4
			c0,12.7,7.3,21.2,17.8,21.2C675.4,109.6,682.7,101,682.7,88.2z"/>
		<path d="M719.1,121.6H704V55h15.1v10.2c4.4-7.2,11-11.6,18.6-11.6c6,0,11.4,2.8,13.7,6.3l-6.7,12.8c-1.7-2.7-5.2-4.6-9.5-4.6
			c-8.5,0-16,7.4-16,26.9V121.6z"/>
		<path d="M748.5,88.4c0-20.8,13-34.7,33.1-34.7c21,0,33.6,15.2,31.7,38.9h-49c0.3,9.9,7.5,17.3,18,17.3c8.1,0,13.8-4.4,15.9-12.3
			l13.3,5.9c-5,12.5-15.6,19.5-29.5,19.5C762,122.9,748.5,109,748.5,88.4z M797.6,80.3c-1-8.4-7.4-13.7-16.1-13.7
			c-9.1,0-15.4,5.5-16.6,13.7H797.6z"/>
		<path d="M815.8,103.2c0-12.1,9.1-19.5,27.7-22.4l16.5-2.6V77c0-6.5-4.8-10-13-10c-8.9,0-14.7,4.2-16.6,12.1l-12.3-8.8
			c5.2-11,15.2-16.6,29.5-16.6c17.3,0,26.9,8.1,26.9,22.8v30.8c0,5.7,0.6,10.6,1.5,14.4h-15c-0.6-2.3-0.8-4.9-1-8.9
			c-5.7,7.1-12.7,10.3-21.6,10.3C825,122.9,815.8,115.3,815.8,103.2z M860,91.8v-1.3l-11.8,1.9c-12.4,2-17.1,4.8-17.1,10.1
			c0,4.9,3.9,7.8,10.3,7.8C850.7,110.3,860,104.3,860,91.8z"/>
		<path d="M921.8,80.1l27.2,41.4h-18.6l-18.8-30.2l-11.7,13v17.2h-15.1V35.4h15.1v49L926.8,55h17.5L921.8,80.1z"/>
	</g>
</g>
</svg>
